<svg width="128" height="128" viewBox="0 0 128 128" fill="none" xmlns="http://www.w3.org/2000/svg">
<g clip-path="url(#clip0_3_45)">
<path d="M0 78.8659V1.04065C0 0.465915 0.447716 0 1 0H35.8031C36.0087 0 36.2094 0.0659765 36.3777 0.188943L61.2412 18.3544C61.9038 18.8385 62.8158 18.3452 62.8158 17.5026V1.04065C62.8158 0.465915 63.2635 0 63.8158 0H87.7273C88.2795 0 88.7273 0.465915 88.7273 1.04065V51.7103C88.7273 52.0332 88.5832 52.3378 88.3374 52.5348L77.5732 61.1603C77.2072 61.4536 76.6958 61.4478 76.336 61.1464L26.7534 19.6094C26.0991 19.0614 25.1263 19.546 25.1263 20.4201V46.0597C25.1263 46.3758 25.2644 46.6747 25.5015 46.8722L64.7962 79.5941C65.0333 79.7917 65.1714 80.0906 65.1714 80.4067V107.874C65.1714 108.758 64.1788 109.24 63.5282 108.671L30.9016 80.1504C30.7215 79.9929 30.4937 79.9065 30.2584 79.9065H1C0.447715 79.9065 0 79.4406 0 78.8659Z" fill="#D9D9D9"/>
<path d="M127 0H106.455C105.902 0 105.455 0.465915 105.455 1.04065V56.295C105.455 56.5538 105.362 56.8033 105.195 56.9948L83.1689 82.2282C83.0017 82.4197 82.9091 82.6692 82.9091 82.928V125.583C82.9091 126.158 83.3568 126.623 83.9091 126.623H105.909C106.461 126.623 106.909 126.158 106.909 125.583V82.8946C106.909 82.6561 106.988 82.4247 107.132 82.2394L127.777 55.7237C127.921 55.5384 128 55.307 128 55.0685V1.04065C128 0.465915 127.552 0 127 0Z" fill="#D9D9D9"/>
<path d="M0 126.959V100.137C0 99.5627 0.447715 99.0968 1 99.0968H30.1962C30.4223 99.0968 30.6418 99.1766 30.8188 99.3231L63.2141 126.145C63.9549 126.759 63.5381 128 62.5915 128H1C0.447715 128 0 127.534 0 126.959Z" fill="#D9D9D9"/>
</g>
<defs>
<clipPath id="clip0_3_45">
<rect width="128" height="128" fill="white"/>
</clipPath>
</defs>
</svg>
