<svg width="340" height="100" viewBox="0 0 340 100" fill="none" xmlns="http://www.w3.org/2000/svg">
<g clip-path="url(#clip0_293_27)">
<path d="M64.4414 62.9306C53.2171 68.8115 17.7789 53.5654 34.6791 53.62C44.4515 53.6515 58.0475 53.3428 55.4892 53.4769C52.2575 53.6463 125.504 60.4149 45.5203 53.9789C42.8927 54.197 55.2611 59.4176 57.8049 54.6254C71.531 55.0253 72.6721 60.0859 95.9861 55.2159M95.9861 55.2159C100.573 55.2287 107.218 55.2428 108.559 54.9953C109.096 54.8962 106.642 55.1475 105.617 55.2196C102.064 55.4696 97.5657 55.6569 93.6643 55.8841C90.2099 56.0854 96.5619 56.2546 101.364 56.3483C111.912 56.5543 122.508 56.6118 129.487 56.4319C131.366 56.3834 107.842 73.6806 134.853 56.2241C137.742 56.204 135.41 56.634 135.786 56.8423C136.503 57.2395 136.326 57.9544 142.675 58.4655C149.571 59.0206 158.63 58.6595 161.359 58.5558C166.491 58.3608 219.432 66.116 224.41 65.9104C229.269 65.7096 172.394 47.4893 174.593 47.9858C176.271 48.3647 175.962 72.2844 180.668 72.7085C222.717 67.2317 196.235 73.1983 200.108 73.041C205.641 72.8163 92.3108 55.5557 95.9861 55.2159ZM95.9861 55.2159C98.2622 55.0055 198.171 58.0138 198.397 58.0905C199.774 58.5582 230.043 60.3744 234.169 60.9051C237.743 61.3649 242.223 50.7521 244.639 50.6745C251.339 50.4592 258.541 50.2645 269.141 50.3994C282.175 50.5654 289.299 61.5665 290.179 62.2595C290.646 78.3429 288.233 63.0412 291.222 63.3465C291.555 63.3805 295.532 63.0068 295.636 62.9941C296.588 62.877 297.763 62.4322 300.822 62.4612C303.355 62.4853 310.69 63.8947 311.224 63.9806C311.544 64.0321 319.491 65.3083 322.466 65.2045C325.442 65.1007 325.028 64.8094 325.36 64.5805" stroke="url(#paint0_linear_293_27)" stroke-width="50"/>
<path d="M37.0609 72V44.7L15.0609 -1H24.3609L38.8609 29C39.6609 30.6667 40.2943 32.1 40.7609 33.3C41.2276 34.4333 41.5276 35.2667 41.6609 35.8C41.7943 35.2667 42.0943 34.4333 42.5609 33.3C43.0943 32.1 43.7609 30.6667 44.5609 29L58.7609 -1H68.0609L46.0609 44.7V72H37.0609ZM96.7219 73C90.9219 73 86.3552 71.5333 83.0219 68.6C79.6885 65.6 78.0219 61.5667 78.0219 56.5C78.0219 51.3667 79.6885 47.3333 83.0219 44.4C86.3552 41.4667 90.8552 40 96.5219 40H113.522V34.5C113.522 31.1 112.489 28.5 110.422 26.7C108.422 24.8333 105.555 23.9 101.822 23.9C98.5552 23.9 95.8219 24.6 93.6219 26C91.4219 27.3333 90.1552 29.1667 89.8219 31.5H80.8219C81.4219 26.7667 83.6552 23 87.5219 20.2C91.3885 17.4 96.2219 16 102.022 16C108.355 16 113.355 17.6333 117.022 20.9C120.689 24.1667 122.522 28.6 122.522 34.2V72H113.722V61.5H112.222L113.722 60C113.722 64 112.155 67.1667 109.022 69.5C105.955 71.8333 101.855 73 96.7219 73ZM98.9219 65.9C103.189 65.9 106.689 64.8333 109.422 62.7C112.155 60.5667 113.522 57.8333 113.522 54.5V46.7H96.7219C93.7219 46.7 91.3552 47.5333 89.6219 49.2C87.8885 50.8667 87.0219 53.1333 87.0219 56C87.0219 59.0667 88.0552 61.5 90.1219 63.3C92.2552 65.0333 95.1885 65.9 98.9219 65.9ZM159.783 72.8C156.049 72.8 152.783 72.2333 149.983 71.1C147.249 69.9 145.049 68.2333 143.383 66.1C141.783 63.9667 140.816 61.4333 140.483 58.5H149.483C149.883 60.4333 150.949 61.9667 152.683 63.1C154.483 64.2333 156.849 64.8 159.783 64.8H163.983C167.516 64.8 170.149 64.1 171.883 62.7C173.616 61.2333 174.483 59.3 174.483 56.9C174.483 54.5667 173.683 52.7333 172.083 51.4C170.549 50 168.249 49.0667 165.183 48.6L157.783 47.4C152.383 46.4667 148.349 44.8 145.683 42.4C143.083 39.9333 141.783 36.3667 141.783 31.7C141.783 26.7667 143.349 22.9667 146.483 20.3C149.616 17.5667 154.316 16.2 160.583 16.2H164.383C169.649 16.2 173.883 17.4333 177.083 19.9C180.283 22.3667 182.216 25.7 182.883 29.9H173.883C173.483 28.1667 172.483 26.8 170.883 25.8C169.283 24.7333 167.116 24.2 164.383 24.2H160.583C157.183 24.2 154.683 24.8333 153.083 26.1C151.549 27.3667 150.783 29.2667 150.783 31.8C150.783 34.0667 151.449 35.7333 152.783 36.8C154.116 37.8667 156.216 38.6333 159.083 39.1L166.483 40.3C172.416 41.2333 176.716 42.9667 179.383 45.5C182.116 48.0333 183.483 51.7 183.483 56.5C183.483 61.5667 181.849 65.5667 178.583 68.5C175.383 71.3667 170.516 72.8 163.983 72.8H159.783ZM200.644 72V-1H209.644V17V27.5H211.544L209.644 29.6C209.644 25.2667 210.944 21.9333 213.544 19.6C216.144 17.2 219.744 16 224.344 16C229.877 16 234.277 17.7 237.544 21.1C240.81 24.5 242.444 29.1333 242.444 35V72H233.444V36C233.444 32.0667 232.377 29.0333 230.244 26.9C228.177 24.7 225.344 23.6 221.744 23.6C218.01 23.6 215.044 24.7667 212.844 27.1C210.71 29.4333 209.644 32.7333 209.644 37V72H200.644ZM281.405 72.8C277.005 72.8 273.205 71.9667 270.005 70.3C266.805 68.6333 264.305 66.2333 262.505 63.1C260.771 59.9 259.905 56.1333 259.905 51.8V37.2C259.905 32.8 260.771 29.0333 262.505 25.9C264.305 22.7667 266.805 20.3667 270.005 18.7C273.205 17.0333 277.005 16.2 281.405 16.2C285.805 16.2 289.605 17.0333 292.805 18.7C296.005 20.3667 298.471 22.7667 300.205 25.9C302.005 29.0333 302.905 32.7667 302.905 37.1V51.8C302.905 56.1333 302.005 59.9 300.205 63.1C298.471 66.2333 296.005 68.6333 292.805 70.3C289.605 71.9667 285.805 72.8 281.405 72.8ZM281.405 64.8C285.338 64.8 288.405 63.7 290.605 61.5C292.805 59.3 293.905 56.0667 293.905 51.8V37.2C293.905 32.9333 292.805 29.7 290.605 27.5C288.405 25.3 285.338 24.2 281.405 24.2C277.538 24.2 274.471 25.3 272.205 27.5C270.005 29.7 268.905 32.9333 268.905 37.2V51.8C268.905 56.0667 270.005 59.3 272.205 61.5C274.471 63.7 277.538 64.8 281.405 64.8Z" fill="url(#paint1_linear_293_27)"/>
</g>
<defs>
<linearGradient id="paint0_linear_293_27" x1="29.7034" y1="60.0002" x2="304.203" y2="71.5001" gradientUnits="userSpaceOnUse">
<stop stop-color="#6100FF"/>
<stop offset="1" stop-color="#6F3DFE"/>
</linearGradient>
<linearGradient id="paint1_linear_293_27" x1="161.463" y1="13" x2="160.934" y2="84.2385" gradientUnits="userSpaceOnUse">
<stop stop-color="white"/>
<stop offset="1" stop-color="#CCCCCC"/>
</linearGradient>
<clipPath id="clip0_293_27">
<rect width="340" height="100" fill="white"/>
</clipPath>
</defs>
</svg>
