<svg class="quotation-mark-svg" shape-rendering="optimizeQuality" xmlns="http://www.w3.org/2000/svg" viewBox="0 0 29.2 24"><path d="M12.7 18.8c0 1.4-.6 2.8-1.7 3.7l-.2.2-.2.2c-.8.6-2 1.1-3.3 1.1H6.7c-1.6 0-3-.6-4.1-1.6-.3-.2-.5-.4-.7-.7-.1-.1-.2-.3-.3-.4C.5 19.4-.1 17.1 0 14.8c0-1.8.4-3.6 1.2-5.2.7-1.6 1.7-3 2.9-4.2 1.1-1.2 2.4-2.3 3.8-3.2C9.3 1.3 10.4.6 11.3 0L13 2.7c-1.5.8-2.6 1.4-3.4 2C8.6 5.4 7.8 6.2 7 7S5.6 8.8 5.1 9.8c-.5.9-.6 1.8-.8 2.7 0 .2-.1.5-.1.8v.2s2-.3 4 .2c2.6.5 4.5 2.6 4.5 5.1zm11.7-5.1c-2-.5-4-.2-4-.2v-.2c0-.3.1-.6.1-.8.2-.9.3-1.8.8-2.7.5-1 1.1-2 1.9-2.8s1.6-1.6 2.6-2.3c.8-.6 1.9-1.2 3.4-2L27.5 0c-.9.6-2 1.3-3.4 2.2-1.4.9-2.7 2-3.8 3.2-1.2 1.2-2.2 2.6-2.9 4.2-.8 1.6-1.2 3.4-1.2 5.2-.1 2.3.5 4.6 1.6 6.5.1.1.2.3.3.4.2.3.4.5.7.7 1.1 1 2.5 1.6 4.1 1.6H23.5c1.3 0 2.4-.5 3.4-1.2l.2-.2.2-.2c1-.9 1.7-2.2 1.7-3.7-.1-2.4-2-4.5-4.6-5z"></path></svg>